<svg xmlns="http://www.w3.org/2000/svg" viewBox="0 0 500 500"><g id="freepik--background-complete--inject-140"><rect y="382.4" width="500" height="0.25" style="fill:#ebebeb"></rect><rect x="52.46" y="398.49" width="33.12" height="0.25" style="fill:#ebebeb"></rect><rect x="171.14" y="401.21" width="8.69" height="0.25" style="fill:#ebebeb"></rect><rect x="86.58" y="389.21" width="25.42" height="0.25" style="fill:#ebebeb"></rect><rect x="422" y="390.89" width="27.9" height="0.25" style="fill:#ebebeb"></rect><rect x="391.47" y="390.89" width="21.63" height="0.25" style="fill:#ebebeb"></rect><rect x="277.21" y="395.11" width="51.45" height="0.25" style="fill:#ebebeb"></rect><path d="M237,337.8H43.91a5.71,5.71,0,0,1-5.7-5.71V60.66A5.71,5.71,0,0,1,43.91,55H237a5.71,5.71,0,0,1,5.71,5.71V332.09A5.71,5.71,0,0,1,237,337.8ZM43.91,55.2a5.46,5.46,0,0,0-5.45,5.46V332.09a5.46,5.46,0,0,0,5.45,5.46H237a5.47,5.47,0,0,0,5.46-5.46V60.66A5.47,5.47,0,0,0,237,55.2Z" style="fill:#ebebeb"></path><path d="M453.31,337.8H260.21a5.72,5.72,0,0,1-5.71-5.71V60.66A5.72,5.72,0,0,1,260.21,55h193.1A5.71,5.71,0,0,1,459,60.66V332.09A5.71,5.71,0,0,1,453.31,337.8ZM260.21,55.2a5.47,5.47,0,0,0-5.46,5.46V332.09a5.47,5.47,0,0,0,5.46,5.46h193.1a5.47,5.47,0,0,0,5.46-5.46V60.66a5.47,5.47,0,0,0-5.46-5.46Z" style="fill:#ebebeb"></path><rect x="351.99" y="99.36" width="89.81" height="89.81" style="fill:#ebebeb"></rect><rect x="349.7" y="99.36" width="2.29" height="89.81" transform="translate(701.68 288.53) rotate(180)" style="fill:#e0e0e0"></rect><rect x="360.29" y="107.66" width="73.21" height="73.21" style="fill:#f5f5f5"></rect><rect x="432.83" y="107.66" width="0.67" height="73.21" style="fill:#e0e0e0"></rect><rect x="78.3" y="144" width="154.16" height="7.48" transform="translate(310.76 295.49) rotate(180)" style="fill:#f0f0f0"></rect><rect x="56.05" y="144" width="22.24" height="7.48" style="fill:#e6e6e6"></rect><polygon points="85.8 151.49 95.52 151.49 88.44 162.18 85.8 162.18 85.8 151.49" style="fill:#ebebeb"></polygon><rect x="84.4" y="151.49" width="1.4" height="10.69" style="fill:#e6e6e6"></rect><polygon points="193.06 151.49 202.78 151.49 195.7 162.18 193.06 162.18 193.06 151.49" style="fill:#ebebeb"></polygon><rect x="191.66" y="151.49" width="1.4" height="10.69" style="fill:#e6e6e6"></rect><rect x="85.91" y="109.26" width="12.5" height="34.74" style="fill:#e0e0e0"></rect><polygon points="91.68 144 162.89 144 156.37 96.45 85.16 96.45 91.68 144" style="fill:#f5f5f5"></polygon><polygon points="94.3 141 88.6 99.45 153.75 99.45 159.45 141 94.3 141" style="fill:#fafafa"></polygon><polygon points="91.68 144 89.79 144 83.28 96.45 85.16 96.45 91.68 144" style="fill:#e6e6e6"></polygon><rect x="184.39" y="91.15" width="6.78" height="52.85" style="fill:#ebebeb"></rect><rect x="187.78" y="101.6" width="13.94" height="2.33" style="fill:#ebebeb"></rect><rect x="178.34" y="118.96" width="18.88" height="20.78" rx="7.99" style="fill:#e0e0e0"></rect><path d="M184,138.37h0a8.22,8.22,0,0,1-8.2-8.19v-1.65a8.22,8.22,0,0,1,8.2-8.2h0a8.22,8.22,0,0,1,8.2,8.2v1.65A8.22,8.22,0,0,1,184,138.37Z" style="fill:#f0f0f0"></path><path d="M218.8,138.37h0a8.22,8.22,0,0,0,8.2-8.19v-1.65a8.22,8.22,0,0,0-8.2-8.2h0a8.22,8.22,0,0,0-8.19,8.2v1.65A8.21,8.21,0,0,0,218.8,138.37Z" style="fill:#f0f0f0"></path><rect x="205.6" y="118.96" width="18.88" height="20.78" rx="7.99" transform="translate(430.08 258.71) rotate(180)" style="fill:#e0e0e0"></rect><path d="M216.54,120.48h-3v-6.81a12.13,12.13,0,1,0-24.26,0v6.81h-3v-6.81a15.13,15.13,0,1,1,30.26,0Z" style="fill:#e0e0e0"></path><rect x="199.15" y="99.02" width="7.48" height="2.33" transform="translate(303.08 -102.7) rotate(90)" style="fill:#ebebeb"></rect><rect x="280.6" y="76.46" width="54.94" height="54.94" style="fill:#ebebeb"></rect><rect x="279.2" y="76.46" width="1.4" height="54.94" transform="translate(559.8 207.86) rotate(180)" style="fill:#e0e0e0"></rect><rect x="285.68" y="81.54" width="44.79" height="44.79" style="fill:#f5f5f5"></rect><rect x="330.05" y="81.54" width="0.41" height="44.79" style="fill:#e0e0e0"></rect></g><g id="freepik--Shadow--inject-140"><ellipse id="freepik--path--inject-140" cx="250" cy="416.24" rx="193.89" ry="11.32" style="fill:#f5f5f5"></ellipse></g><g id="freepik--Desk--inject-140"><path d="M335.94,284.08h-1V230.39a3.82,3.82,0,0,1,3.81-3.81v1a2.81,2.81,0,0,0-2.81,2.81Z" style="fill:#263238"></path><path d="M335,302.21H190.3a11.06,11.06,0,0,1-11-11v-10h1v10a10.06,10.06,0,0,0,10,10H335Z" style="fill:#263238"></path><path d="M271.67,302.21a11.06,11.06,0,0,1-11-11v-10h1v10a10.06,10.06,0,0,0,10,10Z" style="fill:#263238"></path><rect x="329.67" y="257.28" width="9.08" height="1" style="fill:#263238"></rect><rect x="329.67" y="253.03" width="9.08" height="1" style="fill:#263238"></rect><rect x="329.67" y="248.77" width="9.08" height="1" style="fill:#263238"></rect><rect x="65.63" y="282.53" width="368.75" height="4" style="fill:#407BFF"></rect><rect x="69.32" y="286.53" width="14.01" height="125.02" style="fill:#407BFF"></rect><rect x="81.33" y="286.53" width="2" height="125.02" style="opacity:0.4"></rect><rect x="69.32" y="286.53" width="14.01" height="2.22" style="opacity:0.2"></rect><rect x="65.63" y="282.53" width="21.4" height="4" style="opacity:0.4"></rect><rect x="324" y="286.53" width="104.32" height="125.02" style="fill:#407BFF"></rect><rect x="363.17" y="386.21" width="65.15" height="0.97" style="opacity:0.2"></rect><rect x="363.17" y="361.84" width="65.15" height="0.97" style="opacity:0.2"></rect><rect x="363.17" y="337.48" width="65.15" height="0.97" style="opacity:0.2"></rect><rect x="363.17" y="313.11" width="65.15" height="0.97" style="opacity:0.2"></rect><rect x="385.5" y="367.73" width="20.5" height="0.97" style="opacity:0.2"></rect><rect x="385.5" y="343.37" width="20.5" height="0.97" style="opacity:0.2"></rect><rect x="385.5" y="392.1" width="20.5" height="0.97" style="opacity:0.2"></rect><rect x="385.5" y="319" width="20.5" height="0.97" style="opacity:0.2"></rect><rect x="385.5" y="294.64" width="20.5" height="0.97" style="opacity:0.2"></rect><rect x="324" y="286.53" width="39.17" height="125.02" style="opacity:0.4"></rect><rect x="324" y="286.53" width="104.32" height="2.22" style="opacity:0.2"></rect><rect x="337.58" y="214.08" width="88.56" height="68.44" style="fill:#263238"></rect><rect x="403.8" y="214.08" width="22.33" height="68.44" transform="translate(829.94 496.61) rotate(180)" style="opacity:0.30000000000000004"></rect><rect x="341.14" y="217.76" width="59.11" height="48.33" style="fill:#407BFF;opacity:0.4"></rect><rect x="355.25" y="217.76" width="45" height="48.33" style="fill:#407BFF;opacity:0.4"></rect><rect x="356.89" y="219.83" width="33.31" height="40.98" style="fill:#263238;opacity:0.8"></rect><rect x="374.34" y="223.36" width="14.01" height="28.52" style="fill:#407BFF;opacity:0.1"></rect><rect x="361.69" y="237.92" width="11.28" height="11.9" style="fill:#407BFF;opacity:0.1"></rect><rect x="358.39" y="220.94" width="5.64" height="0.72" style="fill:#407BFF;opacity:0.1"></rect><rect x="358.39" y="222.36" width="5.64" height="0.73" style="fill:#407BFF;opacity:0.1"></rect><rect x="358.39" y="223.77" width="5.64" height="0.73" style="fill:#407BFF;opacity:0.1"></rect><rect x="358.39" y="225.19" width="5.64" height="0.73" style="fill:#407BFF;opacity:0.1"></rect><path d="M390.19,261.06a.26.26,0,0,1-.25-.25V220.08H356.88a.25.25,0,0,1,0-.5h33.31a.25.25,0,0,1,.25.25v41A.25.25,0,0,1,390.19,261.06Z" style="fill:#fff"></path><g style="opacity:0.4"><rect x="375.35" y="227.95" width="3.84" height="17.36" style="fill:#407BFF"></rect><rect x="375.35" y="227.95" width="0.63" height="17.36" style="fill:#263238"></rect><rect x="376.98" y="227.95" width="3.84" height="17.36" style="fill:#407BFF"></rect><rect x="376.98" y="227.95" width="0.63" height="17.36" style="fill:#263238"></rect><rect x="378.6" y="227.95" width="3.84" height="17.36" style="fill:#407BFF"></rect><rect x="378.6" y="227.95" width="0.63" height="17.36" style="fill:#263238"></rect><rect x="380.23" y="227.95" width="3.84" height="17.36" style="fill:#407BFF"></rect><rect x="380.23" y="227.95" width="0.63" height="17.36" style="fill:#263238"></rect></g><rect x="341.14" y="266.08" width="59.11" height="12.77" style="fill:#407BFF;opacity:0.30000000000000004"></rect><rect x="341.14" y="266.08" width="55.64" height="12.77" style="fill:#407BFF;opacity:0.30000000000000004"></rect><rect x="348.44" y="252.85" width="27.25" height="3.92" style="fill:#263238"></rect><rect x="348.44" y="226.57" width="23.81" height="20.46" style="fill:#263238"></rect><rect x="367.53" y="252.85" width="8.17" height="3.92" style="opacity:0.30000000000000004"></rect><ellipse cx="365.68" cy="236.8" rx="5.01" ry="9.04" style="fill:#407BFF;opacity:0.5"></ellipse><path d="M367.86,236.8c0,2.17-1,3.93-2.18,3.93s-2.18-1.76-2.18-3.93,1-3.93,2.18-3.93S367.86,234.63,367.86,236.8Z" style="fill:#407BFF;opacity:0.5"></path><path d="M367.33,236.8c0,1.64-.74,3-1.65,3s-1.65-1.34-1.65-3,.74-3,1.65-3S367.33,235.15,367.33,236.8Z" style="fill:#fff"></path><path d="M365.68,246.09a.25.25,0,0,1,0-.5c2.62,0,4.76-3.94,4.76-8.79a.25.25,0,0,1,.5,0C370.94,241.92,368.58,246.09,365.68,246.09Z" style="fill:#fff"></path><path d="M360.66,237.05a.25.25,0,0,1-.25-.25c0-5.12,2.37-9.29,5.27-9.29a.25.25,0,1,1,0,.5c-2.63,0-4.77,3.94-4.77,8.79A.25.25,0,0,1,360.66,237.05Z" style="fill:#fff"></path><polygon points="400.25 265.03 378.8 265.03 378.8 255.53 370.36 255.53 370.36 254.53 379.8 254.53 379.8 264.03 400.25 264.03 400.25 265.03" style="fill:#263238"></polygon><polygon points="381.93 264.53 380.93 264.53 380.93 255.53 372.48 255.53 372.48 254.53 381.93 254.53 381.93 264.53" style="fill:#263238"></polygon><polygon points="384.06 264.53 383.06 264.53 383.06 255.53 374.61 255.53 374.61 254.53 384.06 254.53 384.06 264.53" style="fill:#263238"></polygon><path d="M424.62,217.31a1.69,1.69,0,1,1-1.66-2A1.85,1.85,0,0,1,424.62,217.31Z" style="fill:#407BFF;opacity:0.5"></path><path d="M419,217.31a.45.45,0,1,1-.45-.54A.5.5,0,0,1,419,217.31Z" style="fill:#407BFF;opacity:0.5"></path><path d="M416.92,217.31a.45.45,0,1,1-.45-.54A.5.5,0,0,1,416.92,217.31Z" style="fill:#407BFF;opacity:0.5"></path><path d="M374.08,255.06h-9.94a.25.25,0,0,1-.25-.25.25.25,0,0,1,.25-.25h9.94a.25.25,0,0,1,.25.25A.25.25,0,0,1,374.08,255.06Z" style="fill:#fff"></path><rect x="169.65" y="201.26" width="93.28" height="58.52" style="fill:#407BFF"></rect><rect x="189.03" y="185.88" width="54.52" height="89.28" transform="translate(446.81 14.23) rotate(90)" style="fill:#263238;opacity:0.7000000000000001"></rect><rect x="112.43" y="201.26" width="57.22" height="58.52" style="fill:#407BFF"></rect><rect x="110.18" y="201.26" width="2.25" height="58.52" transform="translate(222.61 461.03) rotate(180)" style="fill:#263238"></rect><rect x="113.78" y="203.35" width="54.52" height="54.33" transform="translate(371.56 89.48) rotate(90)" style="fill:#263238;opacity:0.7000000000000001"></rect><rect x="262.93" y="201.26" width="67.33" height="58.52" style="fill:#407BFF"></rect><rect x="269.34" y="198.29" width="54.52" height="64.45" transform="translate(527.11 -66.08) rotate(90)" style="fill:#263238;opacity:0.7000000000000001"></rect><polygon points="218.85 250.31 217.11 250.31 216.9 249.25 215.68 249.25 215.47 250.31 213.74 250.31 212.32 251.97 212.32 254.75 220.26 254.75 220.26 251.97 218.85 250.31" style="fill:#fff"></polygon><rect x="215.85" y="243.6" width="0.89" height="3.08" style="fill:#fff"></rect><rect x="212.32" y="235.64" width="0.89" height="3.08" style="fill:#fff"></rect><rect x="208.26" y="228.98" width="0.89" height="3.08" style="fill:#fff"></rect><rect x="174.76" y="206.72" width="9.18" height="3.17" style="fill:#407BFF"></rect><rect x="195.87" y="206.72" width="9.18" height="3.17" style="fill:#407BFF"></rect><rect x="227.53" y="206.72" width="9.18" height="3.17" style="fill:#407BFF"></rect><rect x="238.09" y="206.72" width="9.18" height="3.17" style="fill:#407BFF"></rect><rect x="248.64" y="206.72" width="9.18" height="3.17" style="fill:#407BFF"></rect><rect x="185.32" y="210.97" width="9.18" height="3.17" style="fill:#407BFF"></rect><rect x="206.42" y="210.97" width="9.18" height="3.17" style="fill:#407BFF"></rect><rect x="195.87" y="215.23" width="9.18" height="3.17" style="fill:#407BFF"></rect><rect x="248.64" y="215.23" width="9.18" height="3.17" style="fill:#407BFF"></rect><rect x="174.76" y="219.48" width="9.18" height="3.17" style="fill:#407BFF"></rect><rect x="320.6" y="219.48" width="6.8" height="3.17" transform="translate(648.01 442.12) rotate(180)" style="fill:#407BFF"></rect><rect x="304.97" y="219.48" width="6.8" height="3.17" transform="translate(616.74 442.12) rotate(180)" style="fill:#407BFF"></rect><rect x="312.79" y="215.23" width="6.8" height="3.17" transform="translate(632.37 433.62) rotate(180)" style="fill:#407BFF"></rect><rect x="304.97" y="210.97" width="6.8" height="3.17" transform="translate(616.74 425.12) rotate(180)" style="fill:#407BFF"></rect><rect x="265.89" y="210.97" width="6.8" height="3.17" transform="translate(538.58 425.12) rotate(180)" style="fill:#407BFF"></rect><rect x="320.6" y="206.72" width="6.8" height="3.17" transform="translate(648.01 416.61) rotate(180)" style="fill:#407BFF"></rect><rect x="161.11" y="206.72" width="5.71" height="3.17" transform="translate(327.93 416.61) rotate(180)" style="fill:#407BFF"></rect><rect x="147.97" y="206.72" width="5.71" height="3.17" transform="translate(301.65 416.61) rotate(180)" style="fill:#407BFF"></rect><rect x="121.69" y="206.72" width="5.71" height="3.17" transform="translate(249.1 416.61) rotate(180)" style="fill:#407BFF"></rect><rect x="154.54" y="210.97" width="5.71" height="3.17" transform="translate(314.79 425.12) rotate(180)" style="fill:#407BFF"></rect><rect x="141.4" y="210.97" width="5.71" height="3.17" transform="translate(288.51 425.12) rotate(180)" style="fill:#407BFF"></rect><rect x="115.12" y="215.23" width="5.71" height="3.17" transform="translate(235.96 433.62) rotate(180)" style="fill:#407BFF"></rect><rect x="161.11" y="219.48" width="5.71" height="3.17" transform="translate(327.93 442.12) rotate(180)" style="fill:#407BFF"></rect><rect x="72.72" y="249.26" width="47.61" height="33.27" style="fill:#263238"></rect><rect x="98.86" y="249.26" width="21.47" height="33.27" transform="translate(219.2 531.79) rotate(180)" style="opacity:0.30000000000000004"></rect><circle cx="109.6" cy="260.86" r="7.09" style="fill:#407BFF;opacity:0.4"></circle><path d="M113.06,274.69a3.46,3.46,0,1,1-3.46-3.46A3.46,3.46,0,0,1,113.06,274.69Z" style="fill:#407BFF;opacity:0.2"></path><polygon points="177.4 282.53 176.11 277.48 186.2 282.53 177.4 282.53" style="fill:#263238"></polygon><polygon points="231.95 277.48 176.11 277.48 186.2 282.53 242.03 282.53 231.95 277.48" style="fill:#407BFF"></polygon><path d="M258,282.53s-2.16-5.31,6.64-5.54a23.08,23.08,0,0,1,15,5.54Z" style="fill:#263238"></path></g><g id="freepik--Character--inject-140"><polygon points="240.85 406.05 233.56 403.87 235.26 386 242.55 388.18 240.85 406.05" style="fill:#7f3e3b"></polygon><path d="M232.81,402.66l8.42,1.41a.55.55,0,0,1,.48.6l-.7,6.74a1.36,1.36,0,0,1-1.54,1.11c-2.92-.54-4.3-.94-8-1.56-2.28-.38-7.49-1.31-10.66-1.61s-2.79-3.44-1.42-3.6c6.16-.69,9.66-1.53,12.05-2.84A2.15,2.15,0,0,1,232.81,402.66Z" style="fill:#263238"></path><polygon points="242.55 388.18 235.26 386.01 234.31 396.02 241.68 397.39 242.55 388.18" style="opacity:0.2"></polygon><path d="M284,295.68s-50.13,4.23-48.9,26c1.35,23.84-3.22,70.5-3.22,70.5l12.73,2.39S259,345,257.27,327.78c14.13,0,46.48,1.24,51.18-11.51a56.67,56.67,0,0,0,3.35-20.2Z" style="fill:#407BFF"></path><path d="M284,295.68s-50.13,4.23-48.9,26c1.35,23.84-3.22,70.5-3.22,70.5l12.73,2.39S259,345,257.27,327.78c14.13,0,46.48,1.24,51.18-11.51a56.67,56.67,0,0,0,3.35-20.2Z" style="fill:#fff;opacity:0.2"></path><polygon points="246.29 396.01 229.81 393.19 230.08 385.9 247.14 389.69 246.29 396.01" style="fill:#407BFF"></polygon><path d="M229.93,403.53a9.6,9.6,0,0,0,2,.06.16.16,0,0,0,.15-.11.19.19,0,0,0,0-.19c-.21-.21-2.1-2-3.07-1.8a.63.63,0,0,0-.49.42,1,1,0,0,0,.06,1A2.09,2.09,0,0,0,229.93,403.53Zm1.61-.27c-1.39,0-2.37-.16-2.66-.57a.63.63,0,0,1,0-.64.32.32,0,0,1,.23-.22C229.62,401.72,230.76,402.56,231.54,403.26Z" style="fill:#407BFF"></path><path d="M231.94,403.59s.05,0,.08,0a.2.2,0,0,0,.12-.13c0-.09.55-2.22-.09-3.07a.85.85,0,0,0-.7-.37.67.67,0,0,0-.72.42c-.31.79.55,2.54,1.22,3.11A.13.13,0,0,0,231.94,403.59Zm-.52-3.21a.53.53,0,0,1,.35.22,3.92,3.92,0,0,1,.09,2.46,3.59,3.59,0,0,1-.9-2.49c0-.1.11-.21.37-.2Z" style="fill:#407BFF"></path><polygon points="208.35 408.83 201.41 405.71 206.21 388.59 213.15 391.71 208.35 408.83" style="fill:#7f3e3b"></polygon><path d="M202.1,402.89l8.44,1.35a.55.55,0,0,1,.47.6l-.66,6.74a1.34,1.34,0,0,1-1.53,1.12c-2.92-.52-4.3-.92-8-1.51-2.28-.36-8.49-1.52-11.62-2.15s-2.43-3.7-1-3.72c6.19-.07,10.2-.85,12.58-2.18A2.09,2.09,0,0,1,202.1,402.89Z" style="fill:#263238"></path><polygon points="213.15 391.71 206.21 388.59 203.74 397.42 210.68 400.54 213.15 391.71" style="opacity:0.2"></polygon><path d="M269.08,295.68c-.33,0-56.2,5.75-56.27,24.7-.12,31.34-11.22,70.58-11.22,70.58l12.92,5.21s19.5-42,19.21-66.43c15.37-4.41,55.13,3,59.83-9.74,3.85-10.42,1.77-24.32,1.77-24.32Z" style="fill:#407BFF"></path><path d="M269.08,295.68c-.33,0-56.2,5.75-56.27,24.7-.12,31.34-11.22,70.58-11.22,70.58l12.92,5.21s19.5-42,19.21-66.43c15.37-4.41,55.13,3,59.83-9.74,3.85-10.42,1.77-24.32,1.77-24.32Z" style="fill:#fff;opacity:0.4"></path><polygon points="214.66 399.93 199.86 393.27 201.05 387.21 216.66 392.6 214.66 399.93" style="fill:#407BFF"></polygon><path d="M199.23,403.77a9.46,9.46,0,0,0,2,.05.18.18,0,0,0,.16-.12.17.17,0,0,0-.05-.18c-.21-.21-2.1-2-3.08-1.79a.67.67,0,0,0-.48.43,1,1,0,0,0,.06,1A2.09,2.09,0,0,0,199.23,403.77Zm1.6-.28c-1.38.05-2.36-.15-2.66-.55a.64.64,0,0,1,0-.65.3.3,0,0,1,.23-.21C198.9,402,200.05,402.8,200.83,403.49Z" style="fill:#407BFF"></path><path d="M201.23,403.82h.09a.15.15,0,0,0,.11-.12c0-.09.54-2.23-.1-3.08a.87.87,0,0,0-.7-.36.68.68,0,0,0-.72.43c-.31.79.56,2.53,1.24,3.1A.2.2,0,0,0,201.23,403.82Zm-.54-3.21a.52.52,0,0,1,.36.21,4,4,0,0,1,.11,2.47,3.57,3.57,0,0,1-.92-2.49c0-.1.11-.21.37-.2Z" style="fill:#407BFF"></path><path d="M289.77,205.44l-4.24,4.91-5.78,6.7a22.69,22.69,0,0,1,.88,2.64c1,3.58.58,7-4.56,9.21,0,0-4.44,5.8,6.12,4.19S294.34,226,294.34,226C289.66,222.67,289.4,211.6,289.77,205.44Z" style="fill:#7f3e3b"></path><path d="M301.82,232.78c1.47,3.16,2.68,6.2,3.89,9.36s2.28,6.32,3.27,9.56,1.85,6.56,2.54,10a52.18,52.18,0,0,1,1.12,10.87,22.37,22.37,0,0,1-.95,6.33,14.21,14.21,0,0,1-1.67,3.56,11.37,11.37,0,0,1-1.43,1.74l-.43.42c-.24.2-.5.42-.75.59a7.93,7.93,0,0,1-1.34.74,10.58,10.58,0,0,1-2.16.69,14,14,0,0,1-1.77.26,24.24,24.24,0,0,1-3.05,0,42.74,42.74,0,0,1-5.38-.6,101.91,101.91,0,0,1-19.41-5.56l1.45-5.51c6.35.76,12.83,1.57,18.94,1.85,1.52,0,3,.07,4.38,0a12.84,12.84,0,0,0,1.83-.23c.5-.09.93-.27.78-.26a1.15,1.15,0,0,0-.28.14,1.7,1.7,0,0,0-.28.21v0s.05-.08.09-.17a4.66,4.66,0,0,0,.3-.89,14,14,0,0,0,.27-3.34,44.23,44.23,0,0,0-1.27-8.49c-.68-3-1.56-5.92-2.52-8.89s-2-5.94-3.14-8.9-2.34-5.93-3.52-8.72Z" style="fill:#7f3e3b"></path><path d="M293.51,228.65c-6.11,3.44-12.61,16.86-12.61,16.86l14.5,14.75c5.35-5.06,13.15-17.58,14-22.59C310.77,230,303.26,223.17,293.51,228.65Z" style="fill:#407BFF"></path><path d="M278.51,276.73,271.88,273l-3.33,7.18s7.75,3.23,9.38,1.21Z" style="fill:#7f3e3b"></path><polygon points="266.51 274.36 263.48 279.16 268.55 280.13 271.88 272.95 266.51 274.36" style="fill:#7f3e3b"></polygon><path d="M308.67,228.84c-.75-2-4.25-4-6.4-4l-1.42,0c-2.48,0-5.57.2-8.57.55a152.7,152.7,0,0,0-17,2.86c-2.58.68-5.07,1.54-7.05,2.28-2.52,1-4,1.67-4,1.67s4.2,44.43,4.91,63.84H311.8c1.47-8.34.51-23.6.63-38.66C312.5,248.34,311.76,237.07,308.67,228.84Z" style="fill:#407BFF"></path><path d="M266.4,256.93c.32,3.83.65,7.85,1,11.87,5-7.3,7.77-19.88,7.77-19.88Z" style="opacity:0.2"></path><path d="M272.6,240.92c-1.27,3.19-2.6,6.24-4,9.33s-2.8,6.13-4.28,9.17a176,176,0,0,1-10,18c-1,1.48-2,2.95-3.12,4.42-.56.74-1.18,1.47-1.84,2.22-.36.38-.65.73-1.07,1.12l-.6.58-.34.32a8.49,8.49,0,0,1-3.28,1.74,14.45,14.45,0,0,1-1.94.41,20.14,20.14,0,0,1-3.22.13,41.58,41.58,0,0,1-5.54-.55,101.66,101.66,0,0,1-19.82-5.62l1.46-5.52c6.47.78,13.08,1.61,19.3,1.87a42.25,42.25,0,0,0,4.4-.06,11.07,11.07,0,0,0,1.75-.28A2.29,2.29,0,0,0,241,278c.06,0,0-.07-.27.1a1.32,1.32,0,0,0-.27.2s.07-.09.1-.12l.28-.31c.18-.18.4-.48.61-.72.41-.52.83-1.08,1.25-1.69.83-1.19,1.64-2.51,2.44-3.85,1.6-2.68,3.09-5.53,4.55-8.41s2.86-5.82,4.24-8.78c2.75-5.9,5.44-11.95,8-17.9Z" style="fill:#7f3e3b"></path><path d="M264.21,232.23c-6.11,3.44-12.61,16.85-12.61,16.85l14.5,14.75c5.34-5.05,13.15-17.58,14-22.59C281.47,233.55,274,226.75,264.21,232.23Z" style="fill:#407BFF"></path><path d="M217.85,278.11l-6.64-3.78-3.33,7.18s7.75,3.24,9.39,1.22Z" style="fill:#7f3e3b"></path><polygon points="205.85 275.75 202.81 280.54 207.88 281.51 211.21 274.33 205.85 275.75" style="fill:#7f3e3b"></polygon><path d="M268.24,199.9c0,.66-.33,1.22-.77,1.24s-.79-.5-.8-1.16.34-1.22.77-1.24S268.23,199.24,268.24,199.9Z" style="fill:#263238"></path><path d="M270.45,197.44a.38.38,0,0,1-.32-.18,3.25,3.25,0,0,0-2.42-1.54.4.4,0,0,1-.38-.4.39.39,0,0,1,.4-.38h0a4,4,0,0,1,3.06,1.9.4.4,0,0,1-.12.54A.43.43,0,0,1,270.45,197.44Z" style="fill:#263238"></path><path d="M268,200.27a21.19,21.19,0,0,1-2.3,5.12,3.2,3.2,0,0,0,2.72.2Z" style="fill:#630f0f"></path><path d="M290.37,196.57c-.39,8.16-.21,13-4.26,17.32a10.63,10.63,0,0,1-18.22-4.71c-1.84-7.23-.88-19.36,7-23A10.74,10.74,0,0,1,290.37,196.57Z" style="fill:#7f3e3b"></path><path d="M272,201.5c-1.78-1.5-.5-6.94.94-8.11-4,.22-10.81-2.22-7.24-9.78s11.13-2,12.19,0c5.72-.11,9.05-6.72,13.72-1.5s-.48,6.56-.48,6.56,5.84,1.1,2.94,10.62a30,30,0,0,1-5.3,9.5l-10.62,2S269.76,207.28,272,201.5Z" style="fill:#263238"></path><path d="M276.69,202.26a9.58,9.58,0,0,1-2.64,5.34c-1.81,1.73-3.35,0-3.37-2.63,0-2.38.89-6.15,3-6.85S277.08,199.67,276.69,202.26Z" style="fill:#7f3e3b"></path><path d="M247.25,326.35h60.9v20.06H237.33a7.2,7.2,0,0,1-6.2-10.87h0A18.72,18.72,0,0,1,247.25,326.35Z" style="fill:#263238"></path><path d="M275.16,313.17a57.65,57.65,0,0,0-38,0,5.4,5.4,0,0,1-6.69-2.55h0c-1.14-2.41.39-5.53,3.49-6.62a67.27,67.27,0,0,1,44.38,0c3.1,1.08,4.63,4.21,3.49,6.62h0A5.41,5.41,0,0,1,275.16,313.17Z" style="fill:#263238"></path><rect x="253.38" y="305.89" width="5.59" height="23.85" style="fill:#263238"></rect><path d="M357.22,216.35,340.8,198.79a7.75,7.75,0,0,0-5.68-2.41H302.63a8.76,8.76,0,0,0-6,2.41l-18.6,17.56a22.83,22.83,0,0,0-7.17,19l3.5,31.94a14.15,14.15,0,0,0,3.71,8.14l.65.69a14.25,14.25,0,0,1,3.77,10.69l-.74,12a16.14,16.14,0,0,1-5.09,10.69,16.19,16.19,0,0,0-5.09,10.7l-1.25,20.3a5.53,5.53,0,0,0,5.58,6h67.38a6.41,6.41,0,0,0,6.32-6l1.25-20.3a14.28,14.28,0,0,0-3.77-10.7h0a14.28,14.28,0,0,1-3.77-10.69l.74-12a16.16,16.16,0,0,1,5.09-10.69l.73-.69a16.33,16.33,0,0,0,4.72-8.14l7.44-31.94A20.67,20.67,0,0,0,357.22,216.35Z" style="fill:#263238"></path><path d="M349.17,276.07l.73-.69a16.33,16.33,0,0,0,4.72-8.14l7.44-31.94a20.67,20.67,0,0,0-4.84-19L340.8,198.79a7.75,7.75,0,0,0-5.68-2.41H309.67a8.78,8.78,0,0,0-6,2.41l-18.59,17.56a22.84,22.84,0,0,0-7.18,19l3.5,31.94a14.15,14.15,0,0,0,3.71,8.14l.65.69a14.25,14.25,0,0,1,3.77,10.69l-.74,12a16.14,16.14,0,0,1-5.09,10.69h0a16.19,16.19,0,0,0-5.09,10.7l-1.25,20.3a5.53,5.53,0,0,0,5.59,6h60.33a6.41,6.41,0,0,0,6.32-6l1.25-20.3a14.28,14.28,0,0,0-3.77-10.7h0a14.28,14.28,0,0,1-3.77-10.69l.74-12A16.16,16.16,0,0,1,349.17,276.07Z" style="opacity:0.5"></path><rect x="286.81" y="364.33" width="15.43" height="38.51" style="fill:#263238"></rect><rect x="289.03" y="346.41" width="11" height="17.91" style="fill:#263238"></rect><polygon points="300.03 346.41 289.03 346.41 289.03 354.44 300.03 351.67 300.03 346.41" style="opacity:0.5"></polygon><path d="M294.53,411.24v-8.41H282.07a39.72,39.72,0,0,0-7.29.68l-28.48,5.32a2.11,2.11,0,0,0,.47,4.18Z" style="fill:#263238"></path><path d="M256.5,416a4.35,4.35,0,1,1-4.34-4.35A4.34,4.34,0,0,1,256.5,416Z" style="fill:#263238"></path><path d="M254.12,416a4.35,4.35,0,1,1-4.35-4.35A4.35,4.35,0,0,1,254.12,416Z"></path><path d="M294.53,411.24v-8.41H307a39.56,39.56,0,0,1,7.29.68l28.48,5.32a2.11,2.11,0,0,1-.47,4.18Z" style="fill:#263238"></path><path d="M335,416a4.35,4.35,0,1,0,4.34-4.35A4.34,4.34,0,0,0,335,416Z" style="fill:#263238"></path><path d="M332.56,416a4.35,4.35,0,1,0,4.35-4.35A4.35,4.35,0,0,0,332.56,416Z"></path><path d="M289,416a4.35,4.35,0,1,0,4.35-4.35A4.35,4.35,0,0,0,289,416Z"></path><path d="M291.38,416a4.35,4.35,0,1,0,4.34-4.35A4.34,4.34,0,0,0,291.38,416Z" style="fill:#263238"></path><path d="M294.53,413.51h0a4,4,0,0,1-4-4v-.81a4,4,0,0,1,4-4h0a4,4,0,0,1,4,4v.81A4,4,0,0,1,294.53,413.51Z" style="fill:#263238"></path></g></svg>
